<svg xmlns="http://www.w3.org/2000/svg" viewBox="0 0 395.66 291.45"><defs><style>.cls-1{fill:#193e50;stroke:#cf818c;}.cls-1,.cls-2,.cls-3,.cls-4{stroke-miterlimit:10;}.cls-1,.cls-2,.cls-3{stroke-width:6px;}.cls-2{fill:none;}.cls-2,.cls-4{stroke:#fff;}.cls-3{fill:#205369;stroke:#205369;}.cls-4{fill:#fff;stroke-width:3px;}</style></defs><title>Recurso 2</title><g id="Capa_2" data-name="Capa 2"><g id="Capa_1-2" data-name="Capa 1"><polygon class="cls-1" points="151.97 242.29 151.97 254.3 27.22 274.54 27.22 288.45 366.97 288.45 366.97 274.86 249.36 252.02 248.97 239.13 151.55 239.13 151.97 242.29"/><polyline class="cls-2" points="367.71 3 392.66 3 392.66 256.64 367.71 256.64"/><polyline class="cls-2" points="27.95 3 3 3 3 256.64 27.95 256.64"/><rect class="cls-3" x="18.41" y="18.37" width="357.37" height="216.75"/></g><g id="Capa_3" data-name="Capa 3"><polygon class="cls-4" points="66.22 45.52 171.48 126.44 74.07 201.67 74.46 216.11 189.94 127.86 192.29 126.44 66.22 31.09 66.22 45.52"/><rect class="cls-4" x="204.84" y="204.44" width="120.35" height="11.67"/></g></g></svg>